<svg data-v-53c834f7="" width="18" height="18" viewBox="0 0 18 18" fill="none" xmlns="http://www.w3.org/2000/svg"><mask data-v-53c834f7="" id="mask0" mask-type="alpha" maskUnits="userSpaceOnUse" x="9" y="7" width="9" height="9"><path data-v-53c834f7="" fill-rule="evenodd" clip-rule="evenodd" d="M17.9999 9.20501C17.9999 11.945 16.9979 14.253 15.2611 15.82H12.2938V13.561C13.2662 12.923 13.9132 11.97 14.1265 10.845H9.18359V7.36401H17.8326C17.9418 7.95301 17.9999 8.56601 17.9999 9.20501Z" fill="white"></path></mask><g data-v-53c834f7="" mask="url(#mask0)"><path data-v-53c834f7="" fill-rule="evenodd" clip-rule="evenodd" d="M9.16357 15.92H18.1023V7.28003H9.16357V15.92Z" fill="#318AF5"></path></g><mask data-v-53c834f7="" id="mask1" mask-type="alpha" maskUnits="userSpaceOnUse" x="0" y="10" width="16" height="8"><path data-v-53c834f7="" fill-rule="evenodd" clip-rule="evenodd" d="M9.18371 18C5.59391 18 2.48779 15.983 0.976562 13.042V10.71H4.04493C4.76738 12.837 6.79187 14.42 9.18371 14.42C10.4194 14.42 11.4715 14.101 12.2939 13.561L15.2613 15.82C13.7419 17.194 11.6633 18 9.18371 18Z" fill="white"></path></mask><g data-v-53c834f7="" mask="url(#mask1)"><path data-v-53c834f7="" fill-rule="evenodd" clip-rule="evenodd" d="M0.959473 18.0799H15.286V10.6399H0.959473V18.0799Z" fill="#3DA751"></path></g><mask data-v-53c834f7="" id="mask2" mask-type="alpha" maskUnits="userSpaceOnUse" x="0" y="4" width="5" height="10"><path data-v-53c834f7="" fill-rule="evenodd" clip-rule="evenodd" d="M4.0449 10.71L0.976531 13.042C0.355102 11.827 0 10.452 0 9.00001C0 7.54801 0.355102 6.17301 0.976531 4.95801H4.0449V7.29001C3.86122 7.83001 3.75714 8.40701 3.75714 9.00001C3.75714 9.59301 3.86122 10.17 4.0449 10.71Z" fill="white"></path></mask><g data-v-53c834f7="" mask="url(#mask2)"><path data-v-53c834f7="" fill-rule="evenodd" clip-rule="evenodd" d="M-0.0200195 13.1601H4.14325V4.88013H-0.0200195V13.1601Z" fill="#FDB900"></path></g><mask data-v-53c834f7="" id="mask3" mask-type="alpha" maskUnits="userSpaceOnUse" x="0" y="0" width="16" height="8"><path data-v-53c834f7="" fill-rule="evenodd" clip-rule="evenodd" d="M9.18371 3.58C6.79187 3.58 4.76738 5.163 4.04493 7.29L0.976562 4.958C2.48779 2.017 5.59391 0 9.18371 0C11.6592 0 13.7378 0.892 15.3286 2.344L12.6939 4.925C11.7429 4.034 10.5317 3.58 9.18371 3.58Z" fill="white"></path></mask><g data-v-53c834f7="" mask="url(#mask3)"><path data-v-53c834f7="" fill-rule="evenodd" clip-rule="evenodd" d="M0.959473 7.39996H15.4085V-0.0400391H0.959473V7.39996Z" fill="#EA3E36"></path></g></svg>